<?xml version="1.0" encoding="UTF-8" standalone="no"?>
<!-- Created with Inkscape (http://www.inkscape.org/) -->

<svg
   xmlns:dc="http://purl.org/dc/elements/1.1/"
   xmlns:cc="http://creativecommons.org/ns#"
   xmlns:rdf="http://www.w3.org/1999/02/22-rdf-syntax-ns#"
   xmlns:svg="http://www.w3.org/2000/svg"
   xmlns="http://www.w3.org/2000/svg"
   xmlns:sodipodi="http://sodipodi.sourceforge.net/DTD/sodipodi-0.dtd"
   xmlns:inkscape="http://www.inkscape.org/namespaces/inkscape"
   version="1.1"
   id="svg2"
   width="33.599998"
   height="48"
   viewBox="0 0 33.599998 48"
   sodipodi:docname="dn_maps_marker.svg"
   inkscape:version="0.92.1 r15371">
  <metadata
     id="metadata8">
    <rdf:RDF>
      <cc:Work
         rdf:about="">
        <dc:format>image/svg+xml</dc:format>
        <dc:type
           rdf:resource="http://purl.org/dc/dcmitype/StillImage" />
        <dc:title></dc:title>
      </cc:Work>
    </rdf:RDF>
  </metadata>
  <defs
     id="defs6" />
  <sodipodi:namedview
     pagecolor="#ffffff"
     bordercolor="#666666"
     borderopacity="1"
     objecttolerance="10"
     gridtolerance="10"
     guidetolerance="10"
     inkscape:pageopacity="0"
     inkscape:pageshadow="2"
     inkscape:window-width="1629"
     inkscape:window-height="1026"
     id="namedview4"
     showgrid="false"
     inkscape:zoom="27.691542"
     inkscape:cx="16.534749"
     inkscape:cy="24.74893"
     inkscape:window-x="51"
     inkscape:window-y="126"
     inkscape:window-maximized="1"
     inkscape:current-layer="svg2" />
  <path
     style="fill:#000000;stroke-width:0.07190266"
     d="m 15.856225,39.573743 c -2.37793,-2.790062 -2.43176,-2.354372 -5.687546,-8.107734 -2.2312434,-3.92268 -3.9630351,-7.70497 -4.6257201,-11.998302 -0.138269,-0.630706 -0.158695,-0.918261 -0.146544,-2.063053 0.0078,-0.731609 0.04459,-1.475802 0.08182,-1.653761 0.1392035,-0.781516 0.3939458,-1.61272 0.572744,-2.280849 1.2701859,-2.449427 2.68824,-3.6393041 4.7876751,-5.2689311 0.673653,-0.4198509 1.458165,-0.657758 2.171911,-0.8569292 1.617405,-0.3908911 3.311794,-0.5191361 4.990714,-0.3292425 0.895842,0.1230545 1.735047,0.2350984 2.61531,0.468205 1.741936,0.4167212 3.480993,2.0618029 4.716456,3.3797758 0.954247,1.106788 1.637236,2.344125 2.013524,3.629674 0.292914,0.960805 0.297464,1.001884 0.322529,2.912058 0.01888,1.438471 9.71e-4,2.002335 -0.07306,2.300886 -0.05394,0.217505 0,0 -0.17987,0.790929 -1.233826,4.334034 -3.15563,8.611078 -4.36724,10.835343 -1.852645,2.859438 -3.762591,5.501795 -6.044716,7.759678 -0.452891,0.359531 -0.388117,0.391781 -0.71458,0.482253 z m 1.783239,-13.793564 c 0.375692,-0.05744 0.844856,-0.150348 1.042589,-0.206472 2.332414,-0.662025 4.371389,-2.591356 5.175806,-4.897481 0.285039,-0.817161 0.348852,-1.254627 0.351362,-2.40874 0.0026,-1.195214 -0.04993,-1.560572 -0.361814,-2.516593 C 23.460296,14.564275 22.464443,13.14468 21.453024,12.337685 21.028857,11.99925 20.066311,11.36483 19.977,11.36483 c -0.018,0 -0.203474,-0.07715 -0.412174,-0.171449 -1.03233,-0.466437 -1.599783,-0.575387 -2.96795,-0.569841 -1.14696,0.0046 -1.357994,0.03661 -2.465797,0.373434 -0.452062,0.137448 -1.563309,0.729364 -2.033271,1.083041 -1.36438,1.026782 -2.5237561,2.720938 -2.8811671,4.210148 -0.10938,0.455754 -0.251742,1.695399 -0.234273,2.039984 0.03037,0.599021 0.112319,1.340461 0.171889,1.555149 0.126174,0.454726 0.303613,1.01398 0.376419,1.186394 0.9096461,2.154195 2.6960971,3.778085 4.9033401,4.457152 1.136802,0.349742 2.078705,0.423596 3.205448,0.251337 z m -2.912058,-1.448471 c -1.42529,-0.438215 -2.561091,-1.30009 -3.361047,-2.550447 -0.491927,-0.7689 -0.672391,-1.152572 -0.891785,-1.895965 -0.183679,-0.622378 -0.184773,-2.484654 -0.0018,-3.091814 0.379735,-1.260187 0.857561,-2.105193 1.693913,-2.99558 0.573349,-0.61039 1.717003,-1.498337 1.929822,-1.498337 0.05468,0 0.283718,0.103075 0.508973,0.229057 0.225254,0.12598 0.498186,0.27378 0.606514,0.328442 0.108329,0.05466 0.477535,0.306165 0.820459,0.558895 l 0.623499,0.459508 0.329984,-0.271325 c 0.544995,-0.448115 0.981012,-0.722066 1.827514,-1.148232 l 0.347087,-0.174739 0.592956,0.402778 c 0.962587,0.653861 1.807739,1.540665 2.332865,2.447837 0.647358,1.118334 0.966001,2.660488 0.803899,3.890678 -0.08575,0.650742 -0.182189,1.09967 -0.293483,1.366151 -0.581763,1.392962 -1.38155,2.447608 -2.368797,3.123634 -0.428541,0.293448 -1.310205,0.723159 -1.483748,0.723159 -0.05916,0 -0.162061,0.02916 -0.228667,0.06481 -0.06661,0.03564 -0.276527,0.08811 -0.466489,0.116596 l -0.345387,0.05179 0.02182,-0.422181 c 0.02123,-0.41069 0.0277,-0.422773 0.237532,-0.443892 0.348311,-0.03506 1.191544,-0.375354 1.608748,-0.649232 0.858324,-0.563454 1.892446,-1.848614 2.232582,-2.77455 0.19091,-0.519705 0.365412,-1.402367 0.363639,-1.839354 -0.0015,-0.380346 -0.169625,-1.366144 -0.29423,-1.725664 -0.31617,-0.912229 -1.086034,-1.998028 -1.934327,-2.728131 -0.851354,-0.732738 -0.791379,-0.71457 -1.312845,-0.397702 -0.671676,0.408144 -1.346642,0.895342 -1.346642,0.972024 0,0.03735 0.155743,0.261183 0.346096,0.497409 0.864494,1.072826 1.363874,2.737383 1.164596,3.881883 -0.131422,0.754793 -0.81311,2.232482 -1.029888,2.232482 -0.124416,0 -0.624609,-0.370917 -0.624609,-0.463177 0,-0.04626 0.08438,-0.19555 0.187509,-0.331758 0.306173,-0.404377 0.587016,-1.055823 0.680367,-1.578185 0.136758,-0.765254 0.216511,-0.724887 -1.387512,-0.702277 l -1.385785,0.01953 -0.02289,0.321431 c -0.03604,0.506294 0.237747,1.307607 0.643279,1.8827 0.194373,0.275644 0.168925,0.37848 -0.145081,0.58628 -0.349377,0.231207 -0.410084,0.191559 -0.749546,-0.489526 -0.499261,-1.001702 -0.516865,-1.071722 -0.514647,-2.046992 0.0022,-0.980432 0.06171,-1.238498 0.510509,-2.21493 0.234295,-0.509746 0.738922,-1.266342 0.951078,-1.425966 0.0581,-0.04372 0.08645,-0.129469 0.06301,-0.190566 -0.05455,-0.142148 -1.016545,-0.803668 -1.613499,-1.109527 -0.224982,-0.115273 -0.237885,-0.113174 -0.524233,0.08526 -0.451853,0.313134 -1.388393,1.264843 -1.707265,1.734916 -0.658205,0.970308 -0.929687,1.751935 -1.003362,2.888793 -0.04608,0.711021 0.04973,1.427408 0.273527,2.045267 0.32207,0.889172 1.123544,1.97923 1.923305,2.615822 0.483024,0.384477 1.504302,0.88949 1.798799,0.88949 0.243495,0 0.296769,0.09786 0.296769,0.545151 0,0.368388 -0.06676,0.387765 -0.683076,0.198273 z m 3.09225,-7.215368 c 0.116213,-0.188036 -0.959011,-2.012571 -1.186035,-2.012571 -0.147156,0 -0.608713,0.63756 -0.966984,1.335718 -0.404046,0.78736 -0.450874,0.749459 0.925995,0.749459 0.718179,0 1.199763,-0.0285 1.227024,-0.07261 z"
     id="path4511"
     inkscape:connector-curvature="0"
     sodipodi:nodetypes="ccccccccccccccccccccscsscsccscccscscccsccsccccssccscccsccccccsccscsscsscscccssscsccscscsssscccssscc" />
</svg>
