<?xml version="1.0" encoding="UTF-8" standalone="no"?>
<!-- Created with Inkscape (http://www.inkscape.org/) -->

<svg
   xmlns:dc="http://purl.org/dc/elements/1.1/"
   xmlns:cc="http://creativecommons.org/ns#"
   xmlns:rdf="http://www.w3.org/1999/02/22-rdf-syntax-ns#"
   xmlns:svg="http://www.w3.org/2000/svg"
   xmlns="http://www.w3.org/2000/svg"
   xmlns:sodipodi="http://sodipodi.sourceforge.net/DTD/sodipodi-0.dtd"
   xmlns:inkscape="http://www.inkscape.org/namespaces/inkscape"
   version="1.1"
   id="svg2"
   width="35.998581"
   height="60.879707"
   viewBox="0 0 17.99929 30.439854"
   sodipodi:docname="dn_maps_marker2.svg"
   inkscape:version="0.92.1 r15371"
   inkscape:export-filename="/usr/share/odoo-website-dermanord/reseller_dermanord/static/src/img/dn_maps_marker2.png"
   inkscape:export-xdpi="861.65997"
   inkscape:export-ydpi="861.65997">
  <metadata
     id="metadata8">
    <rdf:RDF>
      <cc:Work
         rdf:about="">
        <dc:format>image/svg+xml</dc:format>
        <dc:type
           rdf:resource="http://purl.org/dc/dcmitype/StillImage" />
        <dc:title></dc:title>
      </cc:Work>
    </rdf:RDF>
  </metadata>
  <defs
     id="defs6" />
  <sodipodi:namedview
     pagecolor="#ffffff"
     bordercolor="#666666"
     borderopacity="1"
     objecttolerance="10"
     gridtolerance="10"
     guidetolerance="10"
     inkscape:pageopacity="0"
     inkscape:pageshadow="2"
     inkscape:window-width="1997"
     inkscape:window-height="1128"
     id="namedview4"
     showgrid="false"
     inkscape:zoom="20.958333"
     inkscape:cx="10.520453"
     inkscape:cy="35.387943"
     inkscape:window-x="1731"
     inkscape:window-y="24"
     inkscape:window-maximized="1"
     inkscape:current-layer="svg2"
     fit-margin-top="0"
     fit-margin-left="0"
     fit-margin-right="0"
     fit-margin-bottom="0"
     scale-x="1" />
  <g
     id="g4657"
     inkscape:export-xdpi="861"
     inkscape:export-ydpi="861">
    <ellipse
       ry="8.409543"
       rx="8.8270378"
       cy="8.5511856"
       cx="8.9701786"
       id="path4648"
       style="opacity:1;fill:#000000;fill-opacity:1;fill-rule:nonzero;stroke:none;stroke-width:1.34640551;stroke-linejoin:round;stroke-miterlimit:4;stroke-dasharray:none;stroke-dashoffset:0;stroke-opacity:0.62790695" />
    <ellipse
       ry="8.6778164"
       rx="8.6658859"
       cy="9.0118122"
       cx="9.0484848"
       id="path4601"
       style="opacity:1;fill:#ffffff;fill-opacity:1;fill-rule:nonzero;stroke:none;stroke-width:2.41400504;stroke-linejoin:round;stroke-miterlimit:4;stroke-dasharray:none;stroke-dashoffset:0;stroke-opacity:0.62790695" />
    <path
       sodipodi:nodetypes="cccsccccccscsscsccscccscscccsccsccccssccscccsccccccsccscsscsscscccssscsccscscsssscccssscc"
       inkscape:connector-curvature="0"
       id="path4511-0"
       d="M 3.4339062,22.618402 C 1.2026633,18.695722 0.6637143,15.390569 0.0010293,11.097237 -0.0530407,4.577891 2.0264413,2.9296503 5.4646596,0.8345483 8.4879836,0.0586484 8.8653526,0.1356717 10.518437,0.4083982 c 1.653084,0.2727265 3.245898,1.0274386 4.692162,2.4657631 3.682689,2.87513 2.686734,8.0823327 2.607974,9.0132697 -1.233826,4.334034 -2.773921,8.658792 -3.98553,10.883057 -1.559663,3.086522 -1.568394,3.487701 -4.8984614,7.669366 -3.6192,-3.837269 -3.765994,-4.453493 -5.5006754,-7.821452 z M 9.9504176,16.64629 c 0.3756924,-0.05744 0.8448564,-0.150348 1.0425894,-0.206472 2.332413,-0.662025 4.371388,-2.591356 5.175805,-4.897481 0.285039,-0.817161 0.348852,-1.254627 0.351362,-2.4087401 0.0026,-1.195214 -0.04993,-1.560572 -0.361814,-2.516594 C 15.771249,5.430385 14.775396,4.01079 13.763977,3.203795 13.33981,2.86536 12.377265,2.23094 12.287954,2.23094 c -0.018,0 -0.203474,-0.07715 -0.412174,-0.171449 C 10.84345,1.593054 10.275997,1.484104 8.9078296,1.48965 7.7608696,1.49425 7.5498356,1.52626 6.4420326,1.863084 5.9899706,2.000532 4.8787236,2.592448 4.4087616,2.946125 3.0443812,3.972907 1.8850053,5.667063 1.5275943,7.1562729 c -0.10938,0.455755 -0.251742,1.6954 -0.234273,2.039985 0.03037,0.599021 0.112319,1.3404611 0.171889,1.5551491 0.126174,0.454726 0.303613,1.01398 0.376419,1.186394 0.9096459,2.154195 2.6960973,3.778085 4.9033403,4.457152 1.136802,0.349742 2.078705,0.423596 3.205448,0.251337 z m -2.912058,-1.448471 c -1.42529,-0.438215 -2.561091,-1.30009 -3.3610474,-2.550447 -0.491927,-0.7689 -0.672391,-1.152572 -0.891785,-1.895965 -0.183679,-0.622378 -0.184773,-2.4846541 -0.0018,-3.0918141 0.379735,-1.260188 0.857561,-2.1051939 1.6939134,-2.9955809 0.573349,-0.61039 1.717003,-1.498337 1.929822,-1.498337 0.05468,0 0.283718,0.103075 0.508973,0.229057 0.225254,0.12598 0.498186,0.27378 0.606514,0.328442 0.108329,0.05466 0.477535,0.306165 0.820459,0.558895 l 0.623499,0.459508 0.329984,-0.271325 C 9.8418866,4.022137 10.277904,3.748186 11.124406,3.32202 l 0.347087,-0.174739 0.592956,0.402778 c 0.962587,0.653861 1.807738,1.540665 2.332864,2.447837 0.647358,1.1183339 0.966001,2.6604889 0.803899,3.8906789 -0.08575,0.6507421 -0.182189,1.0996701 -0.293483,1.3661511 -0.581763,1.392962 -1.38155,2.447608 -2.368796,3.123634 -0.428541,0.293448 -1.310205,0.723159 -1.483748,0.723159 -0.05916,0 -0.162061,0.02916 -0.228667,0.06481 -0.06661,0.03564 -0.276527,0.08811 -0.466489,0.116596 l -0.345387,0.05179 0.02182,-0.422181 c 0.02123,-0.41069 0.0277,-0.422773 0.237532,-0.443892 0.348311,-0.03506 1.191544,-0.375354 1.608748,-0.649232 0.858324,-0.563454 1.892445,-1.848614 2.232581,-2.77455 0.19091,-0.519705 0.365412,-1.4023671 0.363639,-1.8393541 -0.0015,-0.380346 -0.169625,-1.366144 -0.29423,-1.725664 C 13.868562,6.5676119 13.098699,5.481813 12.250406,4.75171 11.399052,4.018972 11.459027,4.03714 10.937561,4.354008 10.265885,4.762152 9.5909186,5.24935 9.5909186,5.326032 c 0,0.03735 0.155743,0.261183 0.346096,0.497409 0.8644944,1.0728259 1.3638744,2.7373839 1.1645964,3.8818839 -0.131422,0.7547931 -0.81311,2.2324821 -1.029888,2.2324821 -0.1244164,0 -0.6246094,-0.370917 -0.6246094,-0.463177 0,-0.04626 0.08438,-0.19555 0.187509,-0.331758 0.306173,-0.404377 0.5870164,-1.055823 0.6803674,-1.5781851 0.136758,-0.765254 0.216511,-0.724887 -1.3875124,-0.702277 l -1.385785,0.01953 -0.02289,0.321431 c -0.03604,0.506294 0.237747,1.3076071 0.643279,1.8827001 0.194373,0.275644 0.168925,0.37848 -0.145081,0.58628 -0.349377,0.231207 -0.410084,0.191559 -0.749546,-0.489526 -0.499261,-1.001702 -0.516865,-1.071722 -0.514647,-2.0469921 0.0022,-0.980432 0.06171,-1.238498 0.510509,-2.214931 0.234295,-0.509746 0.738922,-1.2663419 0.951078,-1.4259659 0.0581,-0.04372 0.08645,-0.129469 0.06301,-0.190566 C 8.2228546,5.162222 7.2608596,4.500702 6.6639056,4.194843 6.4389236,4.07957 6.4260206,4.081669 6.1396726,4.280103 5.6878196,4.593237 4.7512796,5.544946 4.4324076,6.015019 3.7742026,6.9853269 3.5027202,7.7669549 3.4290452,8.9038129 c -0.04608,0.711021 0.04973,1.4274081 0.273527,2.0452671 0.3220704,0.889172 1.1235444,1.97923 1.9233054,2.615822 0.483024,0.384477 1.504302,0.88949 1.798799,0.88949 0.243495,0 0.296769,0.09786 0.296769,0.545151 0,0.368388 -0.06676,0.387765 -0.683076,0.198273 z M 10.13061,7.9824509 C 10.246823,7.7944149 9.1715986,5.969879 8.9445746,5.969879 c -0.147156,0 -0.608713,0.6375599 -0.966984,1.3357189 -0.404046,0.78736 -0.450874,0.749459 0.925995,0.749459 0.718179,0 1.1997634,-0.0285 1.2270244,-0.07261 z"
       style="fill:#000000;stroke:none;stroke-width:0.07190266" />
  </g>
</svg>
