<?xml version="1.0" standalone="no"?>
<!DOCTYPE svg PUBLIC "-//W3C//DTD SVG 20010904//EN"
 "http://www.w3.org/TR/2001/REC-SVG-20010904/DTD/svg10.dtd">
<svg version="1.0" xmlns="http://www.w3.org/2000/svg"
 width="260.000000pt" height="260.000000pt" viewBox="0 0 260.000000 260.000000"
 preserveAspectRatio="xMidYMid meet">
<metadata>
Created by potrace 1.11, written by Peter Selinger 2001-2013
</metadata>
<g transform="translate(0.000000,260.000000) scale(0.100000,-0.100000)"
fill="#000000" stroke="none">
<path d="M0 1300 l0 -1300 1300 0 1300 0 0 1300 0 1300 -1300 0 -1300 0 0
-1300z m1503 1049 c218 -44 402 -143 562 -304 198 -199 289 -387 316 -658 19
-189 -13 -398 -86 -563 -65 -146 -221 -331 -367 -434 -140 -99 -308 -168 -466
-191 -106 -15 -337 -7 -414 15 -192 53 -348 141 -488 273 -145 138 -242 291
-306 483 -28 83 -28 90 -28 300 0 206 1 219 27 304 54 176 135 317 253 445
255 276 639 403 997 330z"/>
<path d="M1115 2265 c-201 -37 -393 -142 -537 -293 -87 -91 -136 -163 -189
-277 -68 -144 -82 -215 -83 -415 -1 -189 5 -231 56 -360 49 -123 116 -226 216
-331 144 -151 281 -235 467 -285 57 -16 105 -19 260 -19 168 0 199 3 269 23
278 80 497 265 630 529 74 147 89 211 94 388 5 173 -5 268 -39 368 -34 100
-115 246 -180 325 -140 170 -386 313 -603 351 -80 15 -274 12 -361 -4z m-76
-226 c30 -18 100 -61 155 -97 54 -36 104 -65 110 -65 6 0 38 20 71 45 68 52
232 148 253 148 26 0 169 -105 243 -179 112 -112 190 -237 240 -382 30 -88 38
-320 15 -429 -18 -88 -87 -233 -151 -318 -62 -83 -161 -173 -244 -222 -76 -45
-188 -88 -242 -92 l-34 -3 -3 55 -3 56 73 23 c107 34 181 76 259 149 80 74
154 182 201 291 32 75 32 79 33 231 0 180 -17 256 -87 374 -42 71 -245 290
-278 301 -11 3 -38 -4 -60 -15 -70 -36 -180 -109 -186 -124 -3 -8 13 -38 35
-67 125 -164 184 -387 148 -556 -17 -76 -61 -180 -97 -226 -26 -32 -67 -36
-101 -8 l-24 19 52 108 c40 84 53 125 59 177 l6 67 -181 0 -181 0 0 -25 c0
-53 23 -134 63 -219 l42 -89 -35 -29 c-19 -15 -41 -27 -50 -26 -38 8 -114 177
-131 293 -24 162 33 344 160 514 22 30 38 58 35 63 -8 12 -100 78 -163 117
-34 21 -61 31 -75 27 -35 -9 -132 -96 -207 -186 -81 -98 -131 -194 -160 -311
-29 -115 -23 -281 14 -387 71 -199 227 -369 407 -442 110 -45 118 -50 124 -76
8 -31 -2 -71 -20 -78 -23 -9 -126 23 -194 60 -90 50 -163 106 -245 190 -147
151 -225 346 -225 567 0 238 80 424 268 619 87 90 212 188 240 188 9 0 40 -14
71 -31z"/>
<path d="M1268 1649 c-44 -54 -105 -165 -110 -199 l-3 -25 148 -3 c131 -2 147
-1 147 14 0 22 -87 186 -120 226 l-26 31 -36 -44z"/>
</g>
</svg>
